<?xml version="1.0" encoding="UTF-8" standalone="no"?>
<svg
   xmlns:dc="http://purl.org/dc/elements/1.1/"
   xmlns:cc="http://creativecommons.org/ns#"
   xmlns:rdf="http://www.w3.org/1999/02/22-rdf-syntax-ns#"
   xmlns:svg="http://www.w3.org/2000/svg"
   xmlns="http://www.w3.org/2000/svg"
   width="478.44101"
   height="73.315002"
   viewBox="0 0 126.58752 19.397928"
   version="1.1"
   id="svg941">
  <defs
     id="defs935" />
  <metadata
     id="metadata938">
    <rdf:RDF>
      <cc:Work
         rdf:about="">
        <dc:format>image/svg+xml</dc:format>
        <dc:type
           rdf:resource="http://purl.org/dc/dcmitype/StillImage" />
        <dc:title></dc:title>
      </cc:Work>
    </rdf:RDF>
  </metadata>
  <g
     id="text920"
     style="font-style:normal;font-variant:normal;font-weight:normal;font-stretch:normal;font-size:22.76742363px;line-height:125%;font-family:Roboto;-inkscape-font-specification:Roboto;text-align:center;letter-spacing:0px;word-spacing:0px;text-anchor:middle;fill:#000000;fill-opacity:1;stroke:none;stroke-width:0.77616215px;stroke-linecap:butt;stroke-linejoin:miter;stroke-opacity:1"
     transform="scale(1.0000025,0.99999751)"
     aria-label="owlieDev.pl">
    <path
       id="path836"
       style="font-style:normal;font-variant:normal;font-weight:normal;font-stretch:normal;font-family:Rajdhani;-inkscape-font-specification:Rajdhani;letter-spacing:0.54239589px;fill:#000000;stroke:none;stroke-width:0.77616215px"
       d="m 28.249391,16.005627 h -1.957999 q -1.479882,0 -2.345045,-0.865162 -0.842394,-0.865163 -0.842394,-2.367812 V 7.6272148 q 0,-1.50265 0.842394,-2.3678121 0.865163,-0.8651621 2.345045,-0.8651621 h 1.957999 q 1.479882,0 2.345044,0.8651621 0.865162,0.8651621 0.865162,2.3678121 v 5.1454382 q 0,1.502649 -0.865162,2.367812 -0.865162,0.865162 -2.345044,0.865162 z m -1.866929,-1.024534 h 1.775859 q 1.047301,0 1.593719,-0.569186 0.569186,-0.591953 0.569186,-1.662022 V 7.6499822 q 0,-1.0700689 -0.569186,-1.6392545 -0.546418,-0.591953 -1.593719,-0.591953 h -1.775859 q -1.047302,0 -1.59372,0.591953 -0.546418,0.5691856 -0.546418,1.6392545 v 5.0999028 q 0,1.070069 0.546418,1.662022 0.546418,0.569186 1.59372,0.569186 z" />
    <path
       id="path838"
       style="font-style:normal;font-variant:normal;font-weight:normal;font-stretch:normal;font-family:Rajdhani;-inkscape-font-specification:Rajdhani;letter-spacing:0.54239589px;fill:#000000;stroke:none;stroke-width:0.77616215px"
       d="m 38.333471,16.005627 h -0.910697 q -0.227674,0 -0.295976,-0.273209 L 33.939359,4.6674497 q -0.0683,-0.2732091 0.182139,-0.2732091 h 0.728558 q 0.250441,0 0.295976,0.2732091 l 2.686556,9.9038293 h 0.113837 l 2.641021,-9.9038293 q 0.04554,-0.2732091 0.318744,-0.2732091 h 0.660256 q 0.273209,0 0.318744,0.2732091 l 2.595486,9.9038293 h 0.113837 l 2.709323,-9.9038293 q 0.0683,-0.2732091 0.295977,-0.2732091 h 0.728557 q 0.273209,0 0.18214,0.2732091 L 45.345838,15.732418 q -0.0683,0.273209 -0.318744,0.273209 h -0.910697 q -0.250442,0 -0.318744,-0.273209 L 41.270469,6.1245648 h -0.113837 l -2.504417,9.6078532 q -0.0683,0.273209 -0.318744,0.273209 z" />
    <path
       id="path840"
       style="font-style:normal;font-variant:normal;font-weight:normal;font-stretch:normal;font-family:Rajdhani;-inkscape-font-specification:Rajdhani;letter-spacing:0.54239589px;fill:#000000;stroke:none;stroke-width:0.77616215px"
       d="m 52.276631,16.005627 h -0.660255 q -0.227675,0 -0.227675,-0.273209 V 0.27333695 q 0,-0.27320908326 0.227675,-0.27320908326 h 0.660255 q 0.250442,0 0.250442,0.27320908326 V 15.732418 q 0,0.273209 -0.250442,0.273209 z" />
    <path
       id="path842"
       style="font-style:normal;font-variant:normal;font-weight:normal;font-stretch:normal;font-family:Rajdhani;-inkscape-font-specification:Rajdhani;letter-spacing:0.54239589px;fill:#000000;stroke:none;stroke-width:0.77616215px"
       d="M 56.7336,2.481777 V 0.29610437 q 0,-0.25044166 0.227674,-0.25044166 h 0.683023 q 0.227674,0 0.227674,0.25044166 V 2.481777 q 0,0.2732091 -0.227674,0.2732091 h -0.683023 q -0.227674,0 -0.227674,-0.2732091 z m 0,13.250641 V 4.6674497 q 0,-0.2732091 0.227674,-0.2732091 h 0.660255 q 0.250442,0 0.250442,0.2732091 V 15.732418 q 0,0.273209 -0.227674,0.273209 h -0.683023 q -0.227674,0 -0.227674,-0.273209 z" />
    <path
       id="path844"
       style="font-style:normal;font-variant:normal;font-weight:normal;font-stretch:normal;font-family:Rajdhani;-inkscape-font-specification:Rajdhani;letter-spacing:0.54239589px;fill:#000000;stroke:none;stroke-width:0.77616215px"
       d="M 69.682821,16.005627 H 64.92443 q -1.479883,0 -2.345045,-0.865162 Q 61.73699,14.275302 61.73699,12.772653 V 7.6272148 q 0,-1.50265 0.842395,-2.3678121 0.865162,-0.8651621 2.345045,-0.8651621 h 1.957998 q 1.479883,0 2.345045,0.8651621 0.865162,0.8651621 0.865162,2.3678121 v 2.8914632 q 0,0.273209 -0.273209,0.273209 h -6.739158 q -0.204906,0 -0.204906,0.204906 v 1.753092 q 0,1.070069 0.546418,1.662022 0.546418,0.569186 1.593719,0.569186 h 4.667322 q 0.250442,0 0.250442,0.250441 v 0.523651 q 0,0.250442 -0.250442,0.250442 z M 63.080268,9.8811897 h 5.669089 q 0.204907,0 0.204907,-0.2049068 V 7.6499822 q 0,-1.0700689 -0.546419,-1.6392545 -0.546418,-0.591953 -1.593719,-0.591953 h -1.798627 q -1.047301,0 -1.593719,0.591953 -0.546418,0.5691856 -0.546418,1.6392545 v 2.0263007 q 0,0.2049068 0.204906,0.2049068 z" />
    <path
       id="path846"
       style="font-style:normal;font-variant:normal;font-weight:normal;font-stretch:normal;font-family:Rajdhani;-inkscape-font-specification:Rajdhani;letter-spacing:0.54239589px;fill:#000000;stroke:none;stroke-width:0.77616215px"
       d="m 75.306618,14.981093 h 4.371345 q 1.047302,0 1.59372,-0.569186 0.569186,-0.591953 0.569186,-1.684789 V 4.6446823 q 0,-1.0928363 -0.569186,-1.6620219 -0.546418,-0.5919531 -1.59372,-0.5919531 h -4.371345 q -0.227674,0 -0.227674,0.2049069 V 14.776186 q 0,0.204907 0.227674,0.204907 z m -1.366045,0.751325 V 1.6393824 q 0,-0.2732091 0.227674,-0.2732091 H 79.7918 q 1.479883,0 2.322278,0.8651621 0.865162,0.8651621 0.865162,2.367812 v 8.1735056 q 0,1.502649 -0.865162,2.367812 -0.842395,0.865162 -2.322278,0.865162 h -5.623553 q -0.227674,0 -0.227674,-0.273209 z" />
    <path
       id="path848"
       style="font-style:normal;font-variant:normal;font-weight:normal;font-stretch:normal;font-family:Rajdhani;-inkscape-font-specification:Rajdhani;letter-spacing:0.54239589px;fill:#000000;stroke:none;stroke-width:0.77616215px"
       d="m 94.646727,16.005627 h -4.758392 q -1.479883,0 -2.345045,-0.865162 -0.842394,-0.865163 -0.842394,-2.367812 V 7.6272148 q 0,-1.50265 0.842394,-2.3678121 0.865162,-0.8651621 2.345045,-0.8651621 h 1.957998 q 1.479883,0 2.345045,0.8651621 0.865162,0.8651621 0.865162,2.3678121 v 2.8914632 q 0,0.273209 -0.273209,0.273209 h -6.739157 q -0.204907,0 -0.204907,0.204906 v 1.753092 q 0,1.070069 0.546418,1.662022 0.546418,0.569186 1.59372,0.569186 h 4.667322 q 0.250441,0 0.250441,0.250441 v 0.523651 q 0,0.250442 -0.250441,0.250442 z M 88.044174,9.8811897 h 5.669088 q 0.204907,0 0.204907,-0.2049068 V 7.6499822 q 0,-1.0700689 -0.546418,-1.6392545 -0.546418,-0.591953 -1.59372,-0.591953 h -1.798626 q -1.047302,0 -1.59372,0.591953 -0.546418,0.5691856 -0.546418,1.6392545 v 2.0263007 q 0,0.2049068 0.204907,0.2049068 z" />
    <path
       id="path850"
       style="font-style:normal;font-variant:normal;font-weight:normal;font-stretch:normal;font-family:Rajdhani;-inkscape-font-specification:Rajdhani;letter-spacing:0.54239589px;fill:#000000;stroke:none;stroke-width:0.77616215px"
       d="m 97.606735,4.3942406 h 0.70579 q 0.227674,0 0.295976,0.2732091 l 3.050839,10.0632013 h 0.0911 l 3.02806,-10.0632013 q 0.0911,-0.2732091 0.29598,-0.2732091 h 0.72856 q 0.25044,0 0.15937,0.2732091 L 102.5245,15.732418 q -0.0683,0.273209 -0.31875,0.273209 h -1.00176 q -0.25044,0 -0.34151,-0.273209 L 97.424595,4.6674497 q -0.0683,-0.2732091 0.18214,-0.2732091 z" />
    <path
       id="path852"
       style="font-style:normal;font-variant:normal;font-weight:normal;font-stretch:normal;font-family:Rajdhani;-inkscape-font-specification:Rajdhani;letter-spacing:0.54239589px;fill:#000000;stroke:none;stroke-width:0.77616215px"
       d="m 109.78364,13.023094 v 2.709324 q 0,0.273209 -0.22767,0.273209 h -0.79686 q -0.25045,0 -0.25045,-0.273209 v -2.709324 q 0,-0.250441 0.25045,-0.250441 h 0.79686 q 0.22767,0 0.22767,0.250441 z" />
    <path
       id="path854"
       style="font-style:normal;font-variant:normal;font-weight:normal;font-stretch:normal;font-family:Rajdhani;-inkscape-font-specification:Rajdhani;letter-spacing:0.54239589px;fill:#000000;stroke:none;stroke-width:0.77616215px"
       d="m 114.47896,19.397973 h -0.66026 q -0.22767,0 -0.22767,-0.250442 V 4.6674497 q 0,-0.2732091 0.22767,-0.2732091 h 0.66026 q 0.25044,0 0.25044,0.2732091 v 0.910697 h 0.0911 q 0.63749,-1.1839061 2.36781,-1.1839061 h 1.54818 q 1.45712,0 2.29951,0.8651621 0.8424,0.8651621 0.8424,2.3678121 v 5.1454382 q 0,1.502649 -0.8424,2.367812 -0.84239,0.865162 -2.29951,0.865162 h -1.54818 q -1.73032,0 -2.36781,-1.183906 h -0.0911 v 4.32581 q 0,0.250442 -0.25044,0.250442 z m 2.59548,-4.41688 h 1.50265 q 1.0473,0 1.59372,-0.569186 Q 120.74,13.819954 120.74,12.727118 V 7.6727496 q 0,-1.0928363 -0.56919,-1.6620219 -0.54642,-0.591953 -1.59372,-0.591953 h -1.50265 q -1.09283,0 -1.73032,0.591953 -0.61472,0.5691856 -0.61472,1.6392545 v 5.0999028 q 0,1.070069 0.61472,1.662022 0.63749,0.569186 1.73032,0.569186 z" />
    <path
       id="path856"
       style="font-style:normal;font-variant:normal;font-weight:normal;font-stretch:normal;font-family:Rajdhani;-inkscape-font-specification:Rajdhani;letter-spacing:0.54239589px;fill:#000000;stroke:none;stroke-width:0.77616215px"
       d="m 126.60784,16.005627 h -0.66026 q -0.22767,0 -0.22767,-0.273209 V 0.27333695 q 0,-0.27320908326 0.22767,-0.27320908326 h 0.66026 q 0.25044,0 0.25044,0.27320908326 V 15.732418 q 0,0.273209 -0.25044,0.273209 z" />
  </g>
  <path
     id="rect922"
     d="M 0.55526882,0.55526811 H 18.842659 V 18.842658 H 0.55526882 Z"
     style="fill:none;fill-rule:evenodd;stroke:#000000;stroke-width:1.11053765;stroke-linecap:butt;stroke-linejoin:miter;stroke-miterlimit:4;stroke-dasharray:none;stroke-opacity:1" />
  <g
     id="text926"
     style="font-style:normal;font-variant:normal;font-weight:normal;font-stretch:normal;font-size:18.0882206px;line-height:125%;font-family:Roboto;-inkscape-font-specification:Roboto;text-align:center;letter-spacing:0px;word-spacing:0px;text-anchor:middle;fill:#000000;fill-opacity:1;stroke:none;stroke-width:0.61664337px;stroke-linecap:butt;stroke-linejoin:miter;stroke-opacity:1"
     transform="matrix(0,0.98327188,-1.0170127,0,0,0)"
     aria-label="};">
    <path
       id="path830"
       style="font-style:normal;font-variant:normal;font-weight:300;font-stretch:normal;font-family:Roboto;-inkscape-font-specification:'Roboto Light';fill:#000000;stroke:none;stroke-width:0.61664337px"
       d="M 0.58553231,-1.4067328 Q 2.7317421,-2.1221361 2.7670706,-4.7011206 v -1.9783992 q 0,-2.2345311 1.7046029,-2.8351166 -1.7046029,-0.6005856 -1.7046029,-2.8174526 v -1.881245 q 0,-2.790956 -2.15504187,-3.462199 l 0.22963561,-0.697739 q 1.51029576,0.450439 2.24336326,1.466135 0.7418997,1.006864 0.7418997,2.649642 v 1.969567 q 0,2.3051883 2.0402241,2.3051883 v 0.9185424 q -2.0402241,0 -2.0402241,2.3228526 v 1.9519027 q 0,1.65161 -0.7507318,2.6496417 -0.7507318,0.9980317 -2.23453116,1.43963861 z" />
    <path
       id="path832"
       style="font-style:normal;font-variant:normal;font-weight:300;font-stretch:normal;font-family:Roboto;-inkscape-font-specification:'Roboto Light';fill:#000000;stroke:none;stroke-width:0.61664337px"
       d="m 7.5187612,-13.056324 q 0,-0.309125 0.1943071,-0.521096 0.2031392,-0.220804 0.5564247,-0.220804 0.3532856,0 0.5564248,0.220804 0.2031392,0.211971 0.2031392,0.521096 0,0.309125 -0.2031392,0.512264 -0.2031392,0.194307 -0.5564248,0.194307 -0.3532855,0 -0.5564247,-0.194307 -0.1943071,-0.203139 -0.1943071,-0.512264 z M 7.633579,-1.866004 7.0064971,-2.3252753 Q 7.8102218,-3.4027962 7.8367182,-4.5598064 V -5.928788 h 1.0333603 v 1.1040174 q 0,1.8370849 -1.2364995,2.9587666 z" />
  </g>
  <g
     id="text930"
     style="font-style:normal;font-variant:normal;font-weight:normal;font-stretch:normal;font-size:18.0882206px;line-height:125%;font-family:Roboto;-inkscape-font-specification:Roboto;text-align:center;letter-spacing:0px;word-spacing:0px;text-anchor:middle;fill:#000000;fill-opacity:1;stroke:none;stroke-width:0.61664337px;stroke-linecap:butt;stroke-linejoin:miter;stroke-opacity:1"
     transform="matrix(0,0.98327188,-1.0170127,0,0,0)"
     aria-label="&gt;">
    <path
       id="path827"
       style="font-style:normal;font-variant:normal;font-weight:300;font-stretch:normal;font-family:Roboto;-inkscape-font-specification:'Roboto Light';fill:#000000;stroke:none;stroke-width:0.61664337px"
       d="m 17.814725,-9.5455478 -6.27965,-2.6761382 v -1.086353 l 7.463157,3.3385485 v 0.8567175 l -7.463157,3.3473807 v -1.0951853 z" />
  </g>
</svg>
