<?xml version="1.0" encoding="UTF-8" standalone="no"?>
<!-- Created with Inkscape (http://www.inkscape.org/) -->

<svg
   xmlns:dc="http://purl.org/dc/elements/1.1/"
   xmlns:cc="http://creativecommons.org/ns#"
   xmlns:rdf="http://www.w3.org/1999/02/22-rdf-syntax-ns#"
   xmlns:svg="http://www.w3.org/2000/svg"
   xmlns="http://www.w3.org/2000/svg"
   xmlns:sodipodi="http://sodipodi.sourceforge.net/DTD/sodipodi-0.dtd"
   xmlns:inkscape="http://www.inkscape.org/namespaces/inkscape"
   width="150"
   height="150"
   viewBox="0 0 39.687475 39.68752"
   version="1.1"
   id="svg8"
   sodipodi:docname="RMProperties-Logo-favicon.svg"
   inkscape:version="0.92.4 (5da689c313, 2019-01-14)"
   inkscape:export-filename="C:\Users\Wojtek\Local Sites\rm-properties\app\public\wp-content\themes\rm-properties-theme\src\images\RMProperties-FavIcon.png"
   inkscape:export-xdpi="327.67999"
   inkscape:export-ydpi="327.67999">
  <defs
     id="defs2">
    <filter
       style="color-interpolation-filters:sRGB;"
       inkscape:label="Drop Shadow"
       id="filter1545">
      <feFlood
         flood-opacity="0.576471"
         flood-color="rgb(65,65,65)"
         result="flood"
         id="feFlood1535" />
      <feComposite
         in="flood"
         in2="SourceGraphic"
         operator="in"
         result="composite1"
         id="feComposite1537" />
      <feGaussianBlur
         in="composite1"
         stdDeviation="1.2"
         result="blur"
         id="feGaussianBlur1539" />
      <feOffset
         dx="1.2"
         dy="0.9"
         result="offset"
         id="feOffset1541" />
      <feComposite
         in="offset"
         in2="offset"
         operator="atop"
         result="composite2"
         id="feComposite1543" />
    </filter>
  </defs>
  <sodipodi:namedview
     id="base"
     pagecolor="#ffffff"
     bordercolor="#666666"
     borderopacity="1.0"
     inkscape:pageopacity="0.0"
     inkscape:pageshadow="2"
     inkscape:zoom="2.8"
     inkscape:cx="29.639102"
     inkscape:cy="71.293488"
     inkscape:document-units="mm"
     inkscape:current-layer="layer1"
     showgrid="false"
     inkscape:snap-global="false"
     showguides="true"
     inkscape:guide-bbox="true"
     units="px"
     inkscape:window-width="1920"
     inkscape:window-height="1017"
     inkscape:window-x="-8"
     inkscape:window-y="-8"
     inkscape:window-maximized="1">
    <sodipodi:guide
       position="137.01637,77.863096"
       orientation="0,1"
       id="guide2080"
       inkscape:locked="false" />
    <sodipodi:guide
       position="41.226323,4.343132"
       orientation="0,1"
       id="guide2086"
       inkscape:locked="false" />
    <sodipodi:guide
       position="40.558125,16.303449"
       orientation="0,1"
       id="guide2088"
       inkscape:locked="false" />
  </sodipodi:namedview>
  <metadata
     id="metadata5">
    <rdf:RDF>
      <cc:Work
         rdf:about="">
        <dc:format>image/svg+xml</dc:format>
        <dc:type
           rdf:resource="http://purl.org/dc/dcmitype/StillImage" />
        <dc:title></dc:title>
      </cc:Work>
    </rdf:RDF>
  </metadata>
  <g
     inkscape:label="Layer 1"
     inkscape:groupmode="layer"
     id="layer1"
     transform="translate(0,-257.31233)">
    <path
       style="fill:#bfa16b;fill-opacity:1;stroke-width:0.01843338"
       d="m 20.687258,295.87777 c -4.214713,0.005 -10.08339,0.0159 -13.041523,0.0211 l -5.3784462,0.008 1.7e-6,-0.21374 c 0,-0.20671 9.063e-4,-0.21476 0.038946,-0.22324 0.021368,-0.004 4.0072192,-0.29265 8.8573285,-0.63959 l 8.818381,-0.63087 4.041589,0.10933 c 2.222874,0.0599 4.105773,0.10786 4.184181,0.10919 l 1.517382,0.0263 0.819006,0.0383 c 0.168972,0.005 1.732542,0.0485 3.474566,0.0928 1.74205,0.0444 3.192661,0.085 3.223612,0.0902 l 0.05628,0.008 0.123339,0.94114 -0.123339,0.22913 -0.142789,0.012 c -0.07849,0.007 -1.667408,0.012 -3.530823,0.012 l -4.331318,-8.8e-4 z m -18.4199675,-2.5426 v -0.20375 l 8.8486795,-1.26204 8.848681,-1.26206 4.192826,0.46698 4.192853,0.46698 v 0.634 0.63402 l -0.08215,-0.0106 c -0.04527,-0.004 -1.935879,-0.13973 -4.201488,-0.29759 l -4.119269,-0.28714 -8.714553,0.65021 c -4.7929929,0.35763 -8.7710083,0.65572 -8.8400209,0.66241 l -0.1254801,0.012 z m 33.9062245,0.0223 c -0.556885,-0.0405 -2.120435,-0.15178 -3.474566,-0.24714 l -2.462051,-0.17339 v -0.59483 -0.59482 l 0.06485,0.0106 c 0.06795,0.0106 6.946345,0.77514 6.978331,0.77514 0.01235,0 0.0184,0.14589 0.0184,0.45154 v 0.45152 l -0.05628,-10e-4 c -0.03089,-8.1e-4 -0.511901,-0.0357 -1.068767,-0.0762 z m -2.47503,-2.52339 c -1.899118,-0.26278 -3.454872,-0.47833 -3.457268,-0.47901 -0.0081,-0.001 -0.0045,-1.17908 0.0037,-1.17908 0.0065,0 6.77647,1.17269 6.988323,1.21058 l 0.06485,0.012 v 0.45883 0.45885 l -0.0736,-0.001 c -0.04053,-8.1e-4 -1.627381,-0.21699 -3.526483,-0.47981 z m -31.4311945,0.22658 c 0,-0.108 0.00465,-0.19632 0.010361,-0.19632 0.00565,0 3.975915,-0.78269 8.8227125,-1.73931 l 8.812367,-1.73932 4.205831,0.72848 c 2.3132,0.40064 4.211671,0.72838 4.218811,0.72823 0.0072,-1.8e-4 0.01302,0.28306 0.01302,0.62926 v 0.62941 l -0.07359,-0.012 c -0.04053,-0.005 -1.93802,-0.26764 -4.216787,-0.58036 l -4.143234,-0.56858 -8.807019,1.15831 c -4.8438665,0.63708 -8.8149976,1.15831 -8.8247396,1.15831 -0.010906,0 -0.017669,-0.0757 -0.017669,-0.19632 z m 31.4831125,-2.72632 -3.504852,-0.8191 -0.0045,-0.57583 -0.0045,-0.57582 0.04782,0.0106 c 0.07004,0.0161 6.948229,1.83968 6.984013,1.85157 0.02768,0.008 0.03014,0.049 0.03014,0.47015 0,0.3557 -0.0045,0.45969 -0.0216,0.45858 -0.01196,-8.4e-4 -1.598807,-0.37004 -3.52648,-0.82057 z M 2.2672905,288.11745 c 0,-0.18458 0.0019,-0.1942 0.038946,-0.20448 0.068465,-0.0191 7.5923422,-1.83888 7.6022791,-1.83888 0.00565,0 0.00747,0.19605 0.00465,0.43569 l -0.00465,0.43565 -3.7731322,0.67226 c -2.0752184,0.36975 -3.7945492,0.67705 -3.8207194,0.68287 l -0.047562,0.0106 z m 31.5177305,-2.1915 c -1.908627,-0.56538 -3.487774,-1.03291 -3.509176,-1.03904 l -0.03898,-0.0106 v -0.60052 -0.60052 l 0.03898,0.012 c 0.02152,0.005 1.608326,0.53183 3.526482,1.16766 l 3.487544,1.15609 0.0045,0.47374 c 0.0037,0.37297 0,0.47333 -0.01731,0.47186 -0.01182,-8.3e-4 -1.58355,-0.46441 -3.492179,-1.02974 z m -31.5140573,0.2155 0.00465,-0.19325 8.7751173,-2.83271 c 4.826317,-1.55803 8.802371,-2.83741 8.835697,-2.84308 0.04672,-0.008 1.017709,0.30703 4.257758,1.38134 l 4.19716,1.39165 0.0045,0.63091 c 0.0028,0.4197 -7.29e-4,0.63091 -0.01315,0.63091 -0.0098,0 -1.917818,-0.56188 -4.240243,-1.24855 l -4.222563,-1.24857 -8.745271,2.25157 c -4.8098948,1.23835 -8.77087,2.25639 -8.8021652,2.26227 l -0.056898,0.0106 z m 31.4880973,-2.74551 -3.51351,-1.30136 -0.0045,-0.59184 c -0.0037,-0.46702 0,-0.59174 0.0173,-0.59133 0.01196,2.9e-4 1.599072,0.63963 3.526746,1.42083 l 3.50484,1.42025 0.0045,0.47368 c 0.0028,0.26055 -7.18e-4,0.4731 -0.0081,0.47241 -0.0072,-7e-4 -1.594356,-0.58687 -3.526799,-1.30264 z m -31.4913807,0.37763 3.97e-4,-0.20255 8.8207227,-3.42579 c 4.851397,-1.88419 8.829228,-3.42345 8.839629,-3.42058 0.01036,0.003 1.909584,0.77052 4.220395,1.70588 l 4.201506,1.70065 v 0.62542 c 0,0.3661 -0.0065,0.62545 -0.01585,0.62545 -0.0081,0 -1.9033,-0.69852 -4.210149,-1.55228 -2.890311,-1.06972 -4.208465,-1.54912 -4.239917,-1.54204 -0.03506,0.007 -17.4538349,5.63143 -17.5868096,5.67783 -0.027479,0.008 -0.030256,-0.007 -0.029883,-0.19199 z m 31.4870377,-2.9065 -3.51782,-1.53336 v -0.66418 c 0,-0.51813 0.0045,-0.66427 0.02169,-0.66445 0.01196,-1.9e-4 1.600766,0.74778 3.530807,1.66205 l 3.509186,1.6623 v 0.53673 c 0,0.2952 -0.0054,0.53619 -0.01302,0.53554 -0.0072,-6.9e-4 -1.596013,-0.69127 -3.530817,-1.53463 z m -31.4836712,0.68029 0.00465,-0.23203 8.7664662,-4.10901 c 4.821568,-2.25995 8.782787,-4.11407 8.802734,-4.12019 0.0245,-0.007 1.409579,0.63974 4.270735,1.99577 l 4.23445,2.00694 v 0.71463 c 0,0.39305 -0.0054,0.71073 -0.01302,0.70599 -0.0072,-0.004 -1.904694,-0.83232 -4.216788,-1.839 l -4.20381,-1.83037 -8.803091,3.46043 c -4.8417095,1.90328 -8.8130995,3.46462 -8.8253125,3.46968 -0.017479,0.007 -0.021185,-0.0405 -0.017297,-0.22284 z m 31.4966592,-3.29486 -3.522155,-1.71418 -0.0045,-0.67017 c -0.0037,-0.52462 1.74e-4,-0.6702 0.01704,-0.6702 0.02123,0 7.001882,3.66586 7.02783,3.6906 0.0072,0.007 0.01129,0.25237 0.0081,0.54537 l -0.0045,0.53273 z m -31.5004155,0.92449 v -0.2222 L 6.0620527,276.975 c 2.0871236,-1.08888 3.808527,-1.98756 3.825345,-1.99707 0.028864,-0.0165 0.030349,0.0106 0.025986,0.49777 l -0.00465,0.51504 -3.8077489,1.70395 c -2.0942571,0.93715 -3.8135879,1.70408 -3.8207202,1.7042 -0.00747,2e-4 -0.012951,-0.0995 -0.012951,-0.2219 z m 31.4831125,-3.62475 -3.504852,-1.96012 -0.0045,-0.69894 c -0.0028,-0.38441 -0.0019,-0.69893 7.11e-4,-0.69893 0.0028,0 1.589963,0.94331 3.526716,2.09623 l 3.521346,2.09622 0.0045,0.56394 c 0.0037,0.44486 0,0.56366 -0.01731,0.56281 -0.01196,-5.8e-4 -1.599083,-0.88315 -3.526745,-1.96121 z m -31.4793562,1.30469 0.00465,-0.23038 8.7837772,-5.27031 c 4.831081,-2.89866 8.800524,-5.27953 8.821007,-5.29083 0.03215,-0.0177 0.608298,0.31942 4.25341,2.48948 l 4.216191,2.50993 v 0.73095 0.73093 l -0.160093,-0.0854 c -0.08807,-0.047 -1.985561,-1.10682 -4.216689,-2.35502 l -4.056588,-2.26948 -8.803194,4.62555 c -4.8417655,2.54405 -8.813193,4.62995 -8.825406,4.63533 -0.017479,0.007 -0.021185,-0.0395 -0.017297,-0.22059 z m 31.4793562,-3.91644 -3.504852,-2.15544 -0.0045,-0.70091 -0.0045,-0.70091 0.08233,0.0522 c 0.04527,0.0288 1.634302,1.0689 3.531027,2.31159 l 3.448606,2.25936 v 0.54671 c 0,0.42529 -0.0045,0.54628 -0.0216,0.54475 -0.01196,-7.9e-4 -1.598809,-0.97187 -3.526473,-2.15735 z m -31.4830652,1.74212 4.55e-5,-0.24047 8.7658457,-5.93359 c 4.821206,-3.26343 8.773142,-5.93586 8.782087,-5.93867 0.0093,-0.003 1.932728,1.24936 4.275081,2.7826 l 4.258849,2.78776 5.47e-4,0.73129 c 2.83e-4,0.40222 -0.0054,0.7313 -0.01262,0.7313 -0.0072,0 -1.904066,-1.16169 -4.215013,-2.58154 l -4.201734,-2.58157 -0.116285,0.0667 c -0.06386,0.0367 -4.033337,2.39543 -8.820846,5.24168 -4.7875243,2.84625 -8.7071205,5.17499 -8.7102293,5.17499 -0.00282,0 -0.00565,-0.10813 -0.00565,-0.24047 z m 31.5000142,-4.54605 -3.521801,-2.50924 -0.0045,-0.72023 c -0.0037,-0.50892 7.11e-4,-0.72023 0.01421,-0.72023 0.01036,0 1.599318,1.18502 3.531034,2.63338 l 3.512218,2.63342 v 0.59608 c 0,0.32782 -0.002,0.59605 -0.0045,0.59605 -0.0028,0 -1.589491,-1.12915 -3.526491,-2.50923 z m -31.499228,2.17174 8.642e-4,-0.24167 8.7903138,-6.83193 c 4.834672,-3.75756 8.802111,-6.8308 8.816518,-6.8294 0.01439,8.2e-4 1.927083,1.42811 4.250381,3.1705 l 4.224149,3.16794 v 0.76082 c 0,0.41846 -0.0035,0.76082 -0.0072,0.76082 -0.0045,0 -1.88714,-1.33949 -4.184182,-2.97668 -2.29704,-1.63714 -4.193246,-2.98543 -4.213764,-2.99619 -0.03242,-0.017 -1.194977,0.78624 -8.844349,6.11033 -4.8438648,3.37142 -8.8128704,6.13374 -8.820002,6.13849 -0.00747,0.004 -0.012593,-0.10003 -0.012115,-0.23303 z"
       id="path2078"
       inkscape:connector-curvature="0"
       sodipodi:nodetypes="ccccccccsccscccccccccccccccccccccccccccccssccccccsccccccccsscccscccccsccccccccscccccscccccccccccccccccccccccccsccscccccccccccccccccccsscccccccscccscccccccccsccccccccccscccccccccccccccccsccccccccccccccccccccccccccccsccccccccccsccccscccccsccssccccscccsscccccc" />
    <text
       xml:space="preserve"
       style="font-style:normal;font-variant:normal;font-weight:900;font-stretch:normal;font-size:23.16242981px;line-height:125%;font-family:Roboto;-inkscape-font-specification:'Roboto Heavy';text-align:center;letter-spacing:0px;word-spacing:0px;text-anchor:middle;fill:#000000;fill-opacity:1;stroke:none;stroke-width:0.78962815px;stroke-linecap:butt;stroke-linejoin:miter;stroke-opacity:1"
       x="19.811232"
       y="291.0777"
       id="text854"
       transform="scale(0.99967209,1.000328)"><tspan
         sodipodi:role="line"
         id="tspan852"
         x="19.811232"
         y="291.0777"
         style="font-style:normal;font-variant:normal;font-weight:bold;font-stretch:normal;font-family:Roboto;-inkscape-font-specification:'Roboto Bold';stroke-width:0.78962815px">RM</tspan></text>
  </g>
</svg>
