<?xml version="1.0" encoding="UTF-8" standalone="no"?>
<!-- Created with Inkscape (http://www.inkscape.org/) -->

<svg
   xmlns:dc="http://purl.org/dc/elements/1.1/"
   xmlns:cc="http://creativecommons.org/ns#"
   xmlns:rdf="http://www.w3.org/1999/02/22-rdf-syntax-ns#"
   xmlns:svg="http://www.w3.org/2000/svg"
   xmlns="http://www.w3.org/2000/svg"
   xmlns:sodipodi="http://sodipodi.sourceforge.net/DTD/sodipodi-0.dtd"
   xmlns:inkscape="http://www.inkscape.org/namespaces/inkscape"
   width="150"
   height="150"
   viewBox="0 0 39.687475 39.68752"
   version="1.1"
   id="svg8"
   sodipodi:docname="RMProperties-Logo Square.svg"
   inkscape:version="0.92.4 (5da689c313, 2019-01-14)"
   inkscape:export-filename="C:\Users\Wojtek\Local Sites\rm-properties\app\public\wp-content\themes\rm-properties-theme\src\images\RMProperties-Logo Square-shadow.png"
   inkscape:export-xdpi="96"
   inkscape:export-ydpi="96">
  <defs
     id="defs2">
    <filter
       style="color-interpolation-filters:sRGB;"
       inkscape:label="Drop Shadow"
       id="filter1545">
      <feFlood
         flood-opacity="0.576471"
         flood-color="rgb(65,65,65)"
         result="flood"
         id="feFlood1535" />
      <feComposite
         in="flood"
         in2="SourceGraphic"
         operator="in"
         result="composite1"
         id="feComposite1537" />
      <feGaussianBlur
         in="composite1"
         stdDeviation="1.2"
         result="blur"
         id="feGaussianBlur1539" />
      <feOffset
         dx="1.2"
         dy="0.9"
         result="offset"
         id="feOffset1541" />
      <feComposite
         in="offset"
         in2="offset"
         operator="atop"
         result="composite2"
         id="feComposite1543" />
    </filter>
  </defs>
  <sodipodi:namedview
     id="base"
     pagecolor="#ffffff"
     bordercolor="#666666"
     borderopacity="1.0"
     inkscape:pageopacity="0.0"
     inkscape:pageshadow="2"
     inkscape:zoom="2.8"
     inkscape:cx="43.389102"
     inkscape:cy="70.222059"
     inkscape:document-units="mm"
     inkscape:current-layer="layer1"
     showgrid="false"
     inkscape:snap-global="false"
     showguides="true"
     inkscape:guide-bbox="true"
     units="px"
     inkscape:window-width="1920"
     inkscape:window-height="1017"
     inkscape:window-x="-8"
     inkscape:window-y="-8"
     inkscape:window-maximized="1">
    <sodipodi:guide
       position="137.01637,77.863096"
       orientation="0,1"
       id="guide2080"
       inkscape:locked="false" />
    <sodipodi:guide
       position="41.226323,4.343132"
       orientation="0,1"
       id="guide2086"
       inkscape:locked="false" />
    <sodipodi:guide
       position="40.558125,16.303449"
       orientation="0,1"
       id="guide2088"
       inkscape:locked="false" />
  </sodipodi:namedview>
  <metadata
     id="metadata5">
    <rdf:RDF>
      <cc:Work
         rdf:about="">
        <dc:format>image/svg+xml</dc:format>
        <dc:type
           rdf:resource="http://purl.org/dc/dcmitype/StillImage" />
        <dc:title></dc:title>
      </cc:Work>
    </rdf:RDF>
  </metadata>
  <g
     inkscape:label="Layer 1"
     inkscape:groupmode="layer"
     id="layer1"
     transform="translate(0,-257.31233)">
    <path
       id="path873"
       d="M 15.688219,273.28148 3.2591809,287.52633 h 6.606836 l 1.9483151,2.86641 6.949854,-2.86641 h 6.606835 l 12.429038,-14.24485 z"
       style="fill:#ff0000;fill-rule:evenodd;stroke:none;stroke-width:0.21236561px;stroke-linecap:butt;stroke-linejoin:miter;stroke-opacity:1;filter:url(#filter1545)"
       inkscape:connector-curvature="0" />
    <path
       style="fill:#ffffff;fill-rule:evenodd;stroke:#cbbf83;stroke-width:0.26458347px;stroke-linecap:butt;stroke-linejoin:miter;stroke-opacity:1"
       d="m 0.75815303,263.84878 v 22.11133 H 7.3649885 l 4.4493435,4.44934 4.448826,-4.44934 h 6.606835 v -22.11133 z"
       id="rect850"
       inkscape:connector-curvature="0" />
    <g
       id="g848"
       transform="matrix(0.84744248,0,0,0.84744248,-5.3995781,43.309944)">
      <g
         transform="matrix(0.74596452,0,0,0.74596452,8.9568366,62.008641)"
         id="g823">
        <path
           style="fill:#cbbf83;fill-opacity:1;stroke-width:0.01387674"
           d="m 15.857761,296.65517 c -3.172856,0.004 -7.5908244,0.012 -9.8177215,0.0159 l -4.0489204,0.006 1.3e-6,-0.16091 c 0,-0.15561 6.822e-4,-0.16167 0.029319,-0.16805 0.016086,-0.003 3.0166541,-0.22031 6.6678399,-0.48149 l 6.6385197,-0.47492 3.042528,0.0823 c 1.67339,0.0451 3.090846,0.0812 3.149872,0.0822 l 1.142292,0.0198 0.616552,0.0288 c 0.127203,0.004 1.304266,0.0365 2.61567,0.0699 1.311424,0.0334 2.403451,0.064 2.426751,0.0679 l 0.04237,0.006 0.09285,0.70849 -0.09285,0.17249 -0.107492,0.009 c -0.05909,0.005 -1.255233,0.009 -2.658021,0.009 l -3.260637,-6.6e-4 z M 1.9911204,294.74109 v -0.15339 l 6.6613285,-0.95007 6.6613301,-0.95008 3.15638,0.35154 3.1564,0.35155 v 0.47728 0.47729 l -0.06184,-0.008 c -0.03408,-0.003 -1.457339,-0.10519 -3.1629,-0.22403 l -3.101006,-0.21616 -6.5603575,0.48948 c -3.6081887,0.26923 -6.602858,0.49363 -6.654811,0.49867 l -0.094462,0.009 z m 25.5247706,0.0168 c -0.419226,-0.0305 -1.596274,-0.11426 -2.61567,-0.18605 l -1.853444,-0.13053 v -0.44779 -0.44778 l 0.04882,0.008 c 0.05115,0.008 5.229242,0.58353 5.253321,0.58353 0.0093,0 0.01385,0.10983 0.01385,0.33992 v 0.33991 l -0.04237,-9.9e-4 c -0.02325,-6.1e-4 -0.385361,-0.0269 -0.804573,-0.0574 z m -1.863215,-1.89962 c -1.429665,-0.19782 -2.600844,-0.36009 -2.602648,-0.3606 -0.0061,-9.9e-4 -0.0034,-0.88762 0.0028,-0.88762 0.0049,0 5.101359,0.88281 5.260843,0.91133 l 0.04882,0.009 v 0.34541 0.34542 l -0.05541,-10e-4 c -0.03051,-6.1e-4 -1.2251,-0.16335 -2.654753,-0.3612 z m -23.6615556,0.17057 c 0,-0.0813 0.0035,-0.14779 0.0078,-0.14779 0.00425,0 2.9930881,-0.58921 6.6417806,-1.30936 l 6.633993,-1.30937 3.16617,0.5484 c 1.741388,0.30161 3.170566,0.54833 3.175941,0.54822 0.0054,-1.4e-4 0.0098,0.21309 0.0098,0.47371 v 0.47382 l -0.0554,-0.009 c -0.03051,-0.004 -1.458951,-0.20148 -3.174418,-0.4369 l -3.119047,-0.42803 -6.6299662,0.87198 c -3.6464862,0.4796 -6.635973,0.87198 -6.6433068,0.87198 -0.00821,0 -0.013301,-0.057 -0.013301,-0.14779 z m 23.7006396,-2.05239 -2.638469,-0.61662 -0.0034,-0.43349 -0.0034,-0.43348 0.036,0.008 c 0.05273,0.0121 5.230661,1.38492 5.257599,1.39387 0.02084,0.006 0.02269,0.0369 0.02269,0.35393 0,0.26777 -0.0034,0.34606 -0.01626,0.34522 -0.009,-6.3e-4 -1.20359,-0.27857 -2.654751,-0.61773 z M 1.9911204,290.81316 c 0,-0.13895 0.00143,-0.14619 0.029319,-0.15393 0.051541,-0.0144 5.7155521,-1.38432 5.7230326,-1.38432 0.00425,0 0.00562,0.14759 0.0035,0.32799 l -0.0035,0.32796 -2.8404322,0.50608 c -1.5622345,0.27835 -2.8565551,0.50969 -2.8762561,0.51407 l -0.035805,0.008 z m 23.7267006,-1.64977 c -1.436824,-0.42562 -2.625613,-0.77758 -2.641725,-0.78219 l -0.02934,-0.008 v -0.45207 -0.45208 l 0.02934,0.009 c 0.0162,0.004 1.210756,0.40036 2.654753,0.87902 l 2.62544,0.87031 0.0034,0.35663 c 0.0028,0.28078 0,0.35633 -0.01303,0.35522 -0.0089,-6.2e-4 -1.192104,-0.34961 -2.628929,-0.77519 z m -23.7239354,0.16223 0.0035,-0.14548 6.6059506,-2.13248 c 3.6332748,-1.17289 6.6264678,-2.13601 6.6515558,-2.14028 0.03517,-0.006 0.766136,0.23113 3.205261,1.03988 l 3.159642,1.04764 0.0034,0.47495 c 0.0021,0.31595 -5.49e-4,0.47495 -0.0099,0.47495 -0.0074,0 -1.443743,-0.42298 -3.192076,-0.93991 l -3.178766,-0.93993 -6.583482,1.69499 c -3.6209121,0.93224 -6.6027535,1.69862 -6.6263127,1.70305 l -0.042833,0.008 z m 23.7043924,-2.06683 -2.644987,-0.97967 -0.0034,-0.44554 c -0.0028,-0.35158 0,-0.44547 0.01302,-0.44516 0.009,2.2e-4 1.203789,0.48152 2.654951,1.06961 l 2.638461,1.06917 0.0034,0.35659 c 0.0021,0.19614 -5.4e-4,0.35615 -0.0061,0.35563 -0.0054,-5.3e-4 -1.200239,-0.4418 -2.654992,-0.98063 z m -23.7068642,0.28428 2.989e-4,-0.15248 6.6402827,-2.57895 c 3.6521556,-1.41843 6.6466856,-2.57719 6.6545156,-2.57503 0.0078,0.002 1.437544,0.58005 3.177134,1.28419 l 3.162914,1.28026 v 0.47082 c 0,0.2756 -0.0049,0.47084 -0.01193,0.47084 -0.0061,0 -1.432814,-0.52585 -3.169421,-1.16856 -2.17584,-0.80529 -3.168153,-1.16619 -3.19183,-1.16086 -0.02639,0.005 -13.1393317,4.23937 -13.2394357,4.2743 -0.020686,0.006 -0.022777,-0.005 -0.022496,-0.14453 z m 23.7035952,-2.18803 -2.648232,-1.15432 v -0.5 c 0,-0.39005 0.0034,-0.50006 0.01633,-0.5002 0.009,-1.4e-4 1.205065,0.56293 2.658009,1.2512 l 2.641732,1.25139 v 0.40405 c 0,0.22223 -0.0041,0.40365 -0.0098,0.40316 -0.0054,-5.2e-4 -1.201486,-0.52039 -2.658016,-1.15528 z m -23.7010609,0.51213 0.0035,-0.17468 6.5994385,-3.09328 c 3.6296994,-1.7013 6.6117244,-3.09709 6.6267404,-3.1017 0.01844,-0.005 1.061138,0.4816 3.21503,1.50243 l 3.187715,1.51083 v 0.53798 c 0,0.29589 -0.0041,0.53504 -0.0098,0.53147 -0.0054,-0.003 -1.433863,-0.62657 -3.174419,-1.38441 l -3.164648,-1.37791 -6.6270103,2.60503 c -3.644862,1.4328 -6.6345437,2.60818 -6.6437377,2.61199 -0.013158,0.005 -0.015948,-0.0305 -0.013021,-0.16775 z m 23.7108379,-2.48039 -2.651495,-1.29044 -0.0034,-0.50451 c -0.0028,-0.39494 1.31e-4,-0.50453 0.01283,-0.50453 0.01598,0 5.271051,2.75968 5.290585,2.7783 0.0054,0.005 0.0085,0.18999 0.0061,0.41056 l -0.0034,0.40104 z m -23.7136656,0.69596 v -0.16727 l 2.8567154,-1.4904 c 1.5711968,-0.81971 2.8670776,-1.49624 2.8797383,-1.5034 0.021729,-0.0124 0.022847,0.008 0.019562,0.37472 l -0.0035,0.38773 -2.8664919,1.28274 c -1.5765669,0.70549 -2.8708875,1.28284 -2.8762567,1.28293 -0.00562,1.5e-4 -0.00975,-0.0749 -0.00975,-0.16705 z m 23.7006396,-2.72873 -2.638469,-1.47559 -0.0034,-0.52616 c -0.0021,-0.28939 -0.0014,-0.52616 5.35e-4,-0.52616 0.0021,0 1.196932,0.71013 2.654929,1.57805 l 2.650887,1.57805 0.0034,0.42453 c 0.0028,0.3349 0,0.42433 -0.01303,0.42369 -0.009,-4.4e-4 -1.203798,-0.66484 -2.654951,-1.47641 z m -23.6978119,0.98218 0.0035,-0.17343 6.6124696,-3.96752 c 3.6368613,-2.18212 6.6250773,-3.97445 6.6404973,-3.98296 0.0242,-0.0133 0.45793,0.24046 3.201988,1.87409 l 3.173969,1.88949 v 0.55026 0.55025 l -0.120519,-0.0643 c -0.0663,-0.0354 -1.49474,-0.83322 -3.174344,-1.77287 l -3.053819,-1.70847 -6.6270873,3.48213 c -3.6449045,1.91518 -6.6346144,3.48545 -6.6438084,3.4895 -0.013158,0.005 -0.015948,-0.0297 -0.013021,-0.16606 z m 23.6978119,-2.94832 -2.638469,-1.62262 -0.0034,-0.52765 -0.0034,-0.52765 0.06198,0.0393 c 0.03408,0.0217 1.230311,0.80467 2.658175,1.74017 l 2.596127,1.70086 v 0.41157 c 0,0.32016 -0.0034,0.41124 -0.01626,0.41009 -0.009,-6e-4 -1.203591,-0.73163 -2.654746,-1.62407 z m -23.700604,1.31148 3.42e-5,-0.18103 6.5989716,-4.46683 c 3.6294272,-2.45673 6.6044632,-4.46855 6.6111972,-4.47066 0.007,-0.002 1.454967,0.94052 3.218302,2.09475 l 3.206082,2.09864 4.12e-4,0.55052 c 2.13e-4,0.30279 -0.0041,0.55053 -0.0095,0.55053 -0.0054,0 -1.43339,-0.87453 -3.173082,-1.9434 l -3.163086,-1.94342 -0.08754,0.0502 c -0.04807,0.0276 -3.036315,1.80329 -6.6403757,3.94596 -3.6040712,2.14267 -6.5547623,3.89576 -6.5571026,3.89576 -0.00212,0 -0.00425,-0.0814 -0.00425,-0.18103 z m 23.713364,-3.42229 -2.651229,-1.88897 -0.0034,-0.54219 c -0.0028,-0.38312 5.35e-4,-0.54219 0.0107,-0.54219 0.0078,0 1.203974,0.89209 2.658179,1.98242 l 2.644015,1.98245 v 0.44873 c 0,0.24679 -0.0015,0.44871 -0.0034,0.44871 -0.0021,0 -1.196576,-0.85003 -2.654759,-1.88896 z m -23.7127722,1.6349 6.506e-4,-0.18193 6.6173908,-5.14311 c 3.6395648,-2.82871 6.6262718,-5.14226 6.6371178,-5.14121 0.01083,6.2e-4 1.450717,1.07509 3.199707,2.38677 l 3.17996,2.38484 v 0.57275 c 0,0.31502 -0.0026,0.57275 -0.0054,0.57275 -0.0034,0 -1.420648,-1.00838 -3.149872,-2.24086 -1.729223,-1.23245 -3.156696,-2.24745 -3.172142,-2.25555 -0.02441,-0.0128 -0.899585,0.59189 -6.6580691,4.59989 -3.6464849,2.53802 -6.6343716,4.61751 -6.6397403,4.62108 -0.00562,0.003 -0.00948,-0.0753 -0.00912,-0.17542 z"
           id="path2078"
           inkscape:connector-curvature="0"
           sodipodi:nodetypes="ccccccccsccscccccccccccccccccccccccccccccssccccccsccccccccsscccscccccsccccccccscccccscccccccccccccccccccccccccsccscccccccccccccccccccsscccccccscccscccccccccsccccccccccscccccccccccccccccsccccccccccccccccccccccccccccsccccccccccsccccscccccsccssccccscccsscccccc" />
        <text
           xml:space="preserve"
           style="font-style:normal;font-variant:normal;font-weight:900;font-stretch:normal;font-size:17.43679047px;line-height:125%;font-family:Roboto;-inkscape-font-specification:'Roboto Heavy';text-align:center;letter-spacing:0px;word-spacing:0px;text-anchor:middle;fill:#000000;fill-opacity:1;stroke:none;stroke-width:0.59443593px;stroke-linecap:butt;stroke-linejoin:miter;stroke-opacity:1"
           x="15.198379"
           y="293.01743"
           id="text854"
           transform="scale(0.9996721,1.000328)"><tspan
             sodipodi:role="line"
             id="tspan852"
             x="15.198379"
             y="293.01743"
             style="font-style:normal;font-variant:normal;font-weight:bold;font-stretch:normal;font-family:Roboto;-inkscape-font-specification:'Roboto Bold';stroke-width:0.59443593px">RM</tspan></text>
      </g>
    </g>
  </g>
</svg>
