<?xml version="1.0" encoding="UTF-8" standalone="no"?>
<svg
   xmlns:dc="http://purl.org/dc/elements/1.1/"
   xmlns:cc="http://creativecommons.org/ns#"
   xmlns:rdf="http://www.w3.org/1999/02/22-rdf-syntax-ns#"
   xmlns:svg="http://www.w3.org/2000/svg"
   xmlns="http://www.w3.org/2000/svg"
   id="svg8"
   version="1.1"
   viewBox="0 0 111.12493 29.104181"
   height="110"
   width="420">
  <defs
     id="defs2" />
  <metadata
     id="metadata5">
    <rdf:RDF>
      <cc:Work
         rdf:about="">
        <dc:format>image/svg+xml</dc:format>
        <dc:type
           rdf:resource="http://purl.org/dc/dcmitype/StillImage" />
        <dc:title></dc:title>
      </cc:Work>
    </rdf:RDF>
  </metadata>
  <g
     transform="translate(0,-267.89567)"
     id="layer1">
    <path
       id="path2078"
       d="m 15.857761,296.65517 c -3.172856,0.004 -7.5908244,0.012 -9.8177215,0.0159 l -4.0489204,0.006 1.3e-6,-0.16091 c 0,-0.15561 6.822e-4,-0.16167 0.029319,-0.16805 0.016086,-0.003 3.0166541,-0.22031 6.6678399,-0.48149 l 6.6385197,-0.47492 3.042528,0.0823 c 1.67339,0.0451 3.090846,0.0812 3.149872,0.0822 l 1.142292,0.0198 0.616552,0.0288 c 0.127203,0.004 1.304266,0.0365 2.61567,0.0699 1.311424,0.0334 2.403451,0.064 2.426751,0.0679 l 0.04237,0.006 82.202766,0.89748 -82.202766,-0.0165 -0.107492,0.009 c -0.05909,0.005 -1.255233,0.009 -2.658021,0.009 l -3.260637,-6.6e-4 z M 1.9911204,294.74109 v -0.15339 l 6.6613285,-0.95007 6.6613301,-0.95008 3.15638,0.35154 3.1564,0.35155 v 0.47728 0.47729 l -0.06184,-0.008 c -0.03408,-0.003 -1.457339,-0.10519 -3.1629,-0.22403 l -3.101006,-0.21616 -6.5603575,0.48948 c -3.6081887,0.26923 -6.602858,0.49363 -6.654811,0.49867 l -0.094462,0.009 z m 25.5247706,0.0168 c -0.419226,-0.0305 -1.596274,-0.11426 -2.61567,-0.18605 l -1.853444,-0.13053 v -0.44779 -0.44778 l 0.04882,0.008 c 0.05115,0.008 5.229242,0.58353 5.253321,0.58353 0.0093,0 0.01385,0.10983 0.01385,0.33992 v 0.33991 l -0.04237,-9.9e-4 c -0.02325,-6.1e-4 -0.385361,-0.0269 -0.804573,-0.0574 z m -1.863215,-1.89962 c -1.429665,-0.19782 -2.600844,-0.36009 -2.602648,-0.3606 -0.0061,-9.9e-4 -0.0034,-0.88762 0.0028,-0.88762 0.0049,0 5.101359,0.88281 5.260843,0.91133 l 0.04882,0.009 v 0.34541 0.34542 l -0.05541,-10e-4 c -0.03051,-6.1e-4 -1.2251,-0.16335 -2.654753,-0.3612 z m -23.6615556,0.17057 c 0,-0.0813 0.0035,-0.14779 0.0078,-0.14779 0.00425,0 2.9930881,-0.58921 6.6417806,-1.30936 l 6.633993,-1.30937 3.16617,0.5484 c 1.741388,0.30161 3.170566,0.54833 3.175941,0.54822 0.0054,-1.4e-4 0.0098,0.21309 0.0098,0.47371 v 0.47382 l -0.0554,-0.009 c -0.03051,-0.004 -1.458951,-0.20148 -3.174418,-0.4369 l -3.119047,-0.42803 -6.6299662,0.87198 c -3.6464862,0.4796 -6.635973,0.87198 -6.6433068,0.87198 -0.00821,0 -0.013301,-0.057 -0.013301,-0.14779 z m 23.7006396,-2.05239 -2.638469,-0.61662 -0.0034,-0.43349 -0.0034,-0.43348 0.036,0.008 c 0.05273,0.0121 5.230661,1.38492 5.257599,1.39387 0.02084,0.006 0.02269,0.0369 0.02269,0.35393 0,0.26777 -0.0034,0.34606 -0.01626,0.34522 -0.009,-6.3e-4 -1.20359,-0.27857 -2.654751,-0.61773 z M 1.9911204,290.81316 c 0,-0.13895 0.00143,-0.14619 0.029319,-0.15393 0.051541,-0.0144 5.7155521,-1.38432 5.7230326,-1.38432 0.00425,0 0.00562,0.14759 0.0035,0.32799 l -0.0035,0.32796 -2.8404322,0.50608 c -1.5622345,0.27835 -2.8565551,0.50969 -2.8762561,0.51407 l -0.035805,0.008 z m 23.7267006,-1.64977 c -1.436824,-0.42562 -2.625613,-0.77758 -2.641725,-0.78219 l -0.02934,-0.008 v -0.45207 -0.45208 l 0.02934,0.009 c 0.0162,0.004 1.210756,0.40036 2.654753,0.87902 l 2.62544,0.87031 0.0034,0.35663 c 0.0028,0.28078 0,0.35633 -0.01303,0.35522 -0.0089,-6.2e-4 -1.192104,-0.34961 -2.628929,-0.77519 z m -23.7239354,0.16223 0.0035,-0.14548 6.6059506,-2.13248 c 3.6332748,-1.17289 6.6264678,-2.13601 6.6515558,-2.14028 0.03517,-0.006 0.766136,0.23113 3.205261,1.03988 l 3.159642,1.04764 0.0034,0.47495 c 0.0021,0.31595 -5.49e-4,0.47495 -0.0099,0.47495 -0.0074,0 -1.443743,-0.42298 -3.192076,-0.93991 l -3.178766,-0.93993 -6.583482,1.69499 c -3.6209121,0.93224 -6.6027535,1.69862 -6.6263127,1.70305 l -0.042833,0.008 z m 23.7043924,-2.06683 -2.644987,-0.97967 -0.0034,-0.44554 c -0.0028,-0.35158 0,-0.44547 0.01302,-0.44516 0.009,2.2e-4 1.203789,0.48152 2.654951,1.06961 l 2.638461,1.06917 0.0034,0.35659 c 0.0021,0.19614 -5.4e-4,0.35615 -0.0061,0.35563 -0.0054,-5.3e-4 -1.200239,-0.4418 -2.654992,-0.98063 z m -23.7068642,0.28428 2.989e-4,-0.15248 6.6402827,-2.57895 c 3.6521556,-1.41843 6.6466856,-2.57719 6.6545156,-2.57503 0.0078,0.002 1.437544,0.58005 3.177134,1.28419 l 3.162914,1.28026 v 0.47082 c 0,0.2756 -0.0049,0.47084 -0.01193,0.47084 -0.0061,0 -1.432814,-0.52585 -3.169421,-1.16856 -2.17584,-0.80529 -3.168153,-1.16619 -3.19183,-1.16086 -0.02639,0.005 -13.1393317,4.23937 -13.2394357,4.2743 -0.020686,0.006 -0.022777,-0.005 -0.022496,-0.14453 z m 23.7035952,-2.18803 -2.648232,-1.15432 v -0.5 c 0,-0.39005 0.0034,-0.50006 0.01633,-0.5002 0.009,-1.4e-4 1.205065,0.56293 2.658009,1.2512 l 2.641732,1.25139 v 0.40405 c 0,0.22223 -0.0041,0.40365 -0.0098,0.40316 -0.0054,-5.2e-4 -1.201486,-0.52039 -2.658016,-1.15528 z m -23.7010609,0.51213 0.0035,-0.17468 6.5994385,-3.09328 c 3.6296994,-1.7013 6.6117244,-3.09709 6.6267404,-3.1017 0.01844,-0.005 1.061138,0.4816 3.21503,1.50243 l 3.187715,1.51083 v 0.53798 c 0,0.29589 -0.0041,0.53504 -0.0098,0.53147 -0.0054,-0.003 -1.433863,-0.62657 -3.174419,-1.38441 l -3.164648,-1.37791 -6.6270103,2.60503 c -3.644862,1.4328 -6.6345437,2.60818 -6.6437377,2.61199 -0.013158,0.005 -0.015948,-0.0305 -0.013021,-0.16775 z m 23.7108379,-2.48039 -2.651495,-1.29044 -0.0034,-0.50451 c -0.0028,-0.39494 1.31e-4,-0.50453 0.01283,-0.50453 0.01598,0 5.271051,2.75968 5.290585,2.7783 0.0054,0.005 0.0085,0.18999 0.0061,0.41056 l -0.0034,0.40104 z m -23.7136656,0.69596 v -0.16727 l 2.8567154,-1.4904 c 1.5711968,-0.81971 2.8670776,-1.49624 2.8797383,-1.5034 0.021729,-0.0124 0.022847,0.008 0.019562,0.37472 l -0.0035,0.38773 -2.8664919,1.28274 c -1.5765669,0.70549 -2.8708875,1.28284 -2.8762567,1.28293 -0.00562,1.5e-4 -0.00975,-0.0749 -0.00975,-0.16705 z m 23.7006396,-2.72873 -2.638469,-1.47559 -0.0034,-0.52616 c -0.0021,-0.28939 -0.0014,-0.52616 5.35e-4,-0.52616 0.0021,0 1.196932,0.71013 2.654929,1.57805 l 2.650887,1.57805 0.0034,0.42453 c 0.0028,0.3349 0,0.42433 -0.01303,0.42369 -0.009,-4.4e-4 -1.203798,-0.66484 -2.654951,-1.47641 z m -23.6978119,0.98218 0.0035,-0.17343 6.6124696,-3.96752 c 3.6368613,-2.18212 6.6250773,-3.97445 6.6404973,-3.98296 0.0242,-0.0133 0.45793,0.24046 3.201988,1.87409 l 3.173969,1.88949 v 0.55026 0.55025 l -0.120519,-0.0643 c -0.0663,-0.0354 -1.49474,-0.83322 -3.174344,-1.77287 l -3.053819,-1.70847 -6.6270873,3.48213 c -3.6449045,1.91518 -6.6346144,3.48545 -6.6438084,3.4895 -0.013158,0.005 -0.015948,-0.0297 -0.013021,-0.16606 z m 23.6978119,-2.94832 -2.638469,-1.62262 -0.0034,-0.52765 -0.0034,-0.52765 0.06198,0.0393 c 0.03408,0.0217 1.230311,0.80467 2.658175,1.74017 l 2.596127,1.70086 v 0.41157 c 0,0.32016 -0.0034,0.41124 -0.01626,0.41009 -0.009,-6e-4 -1.203591,-0.73163 -2.654746,-1.62407 z m -23.700604,1.31148 3.42e-5,-0.18103 6.5989716,-4.46683 c 3.6294272,-2.45673 6.6044632,-4.46855 6.6111972,-4.47066 0.007,-0.002 1.454967,0.94052 3.218302,2.09475 l 3.206082,2.09864 4.12e-4,0.55052 c 2.13e-4,0.30279 -0.0041,0.55053 -0.0095,0.55053 -0.0054,0 -1.43339,-0.87453 -3.173082,-1.9434 l -3.163086,-1.94342 -0.08754,0.0502 c -0.04807,0.0276 -3.036315,1.80329 -6.6403757,3.94596 -3.6040712,2.14267 -6.5547623,3.89576 -6.5571026,3.89576 -0.00212,0 -0.00425,-0.0814 -0.00425,-0.18103 z m 23.713364,-3.42229 -2.651229,-1.88897 -0.0034,-0.54219 c -0.0028,-0.38312 5.35e-4,-0.54219 0.0107,-0.54219 0.0078,0 1.203974,0.89209 2.658179,1.98242 l 2.644015,1.98245 v 0.44873 c 0,0.24679 -0.0015,0.44871 -0.0034,0.44871 -0.0021,0 -1.196576,-0.85003 -2.654759,-1.88896 z m -23.7127722,1.6349 6.506e-4,-0.18193 6.6173908,-5.14311 c 3.6395648,-2.82871 6.6262718,-5.14226 6.6371178,-5.14121 0.01083,6.2e-4 1.450717,1.07509 3.199707,2.38677 l 3.17996,2.38484 v 0.57275 c 0,0.31502 -0.0026,0.57275 -0.0054,0.57275 -0.0034,0 -1.420648,-1.00838 -3.149872,-2.24086 -1.729223,-1.23245 -3.156696,-2.24745 -3.172142,-2.25555 -0.02441,-0.0128 -0.899585,0.59189 -6.6580691,4.59989 -3.6464849,2.53802 -6.6343716,4.61751 -6.6397403,4.62108 -0.00562,0.003 -0.00948,-0.0753 -0.00912,-0.17542 z"
       style="fill:#bfa16b;fill-opacity:1;stroke-width:0.01387674" />
    <g
       id="text854"
       style="font-style:normal;font-variant:normal;font-weight:900;font-stretch:normal;font-size:17.43679047px;line-height:125%;font-family:Roboto;-inkscape-font-specification:'Roboto Heavy';text-align:center;letter-spacing:0px;word-spacing:0px;text-anchor:middle;fill:#000000;fill-opacity:1;stroke:none;stroke-width:0.59443593px;stroke-linecap:butt;stroke-linejoin:miter;stroke-opacity:1"
       transform="scale(0.9996721,1.000328)"
       aria-label="RM">
      <path
         id="path820"
         style="font-style:normal;font-variant:normal;font-weight:bold;font-stretch:normal;font-family:Roboto;-inkscape-font-specification:'Roboto Bold';stroke-width:0.59443593px"
         d="M 7.6804655,288.47943 H 5.6456057 v 4.538 H 3.0913883 v -12.39647 h 4.6061053 q 2.1966269,0 3.3885954,0.97911 1.191968,0.97912 1.191968,2.76707 0,1.2686 -0.553414,2.12 -0.5449,0.84289 -1.660241,1.34522 l 2.681928,5.06587 v 0.1192 h -2.741527 z m -2.0348598,-2.06891 h 2.060402 q 0.9620885,0 1.4899601,-0.4853 0.5278716,-0.49382 0.5278716,-1.35374 0,-0.87695 -0.5023294,-1.37928 -0.4938154,-0.50233 -1.5240164,-0.50233 H 5.6456057 Z" />
      <path
         id="path822"
         style="font-style:normal;font-variant:normal;font-weight:bold;font-stretch:normal;font-family:Roboto;-inkscape-font-specification:'Roboto Bold';stroke-width:0.59443593px"
         d="m 17.565287,280.62096 3.184257,8.99084 3.16723,-8.99084 h 3.354539 v 12.39647 h -2.562732 v -3.3886 l 0.255422,-5.84916 -3.346025,9.23776 h -1.753896 l -3.33751,-9.22924 0.255421,5.84064 v 3.3886 h -2.554217 v -12.39647 z" />
    </g>
    <g
       id="text858"
       style="font-style:normal;font-variant:normal;font-weight:300;font-stretch:normal;font-size:17.41760635px;line-height:125%;font-family:Roboto;-inkscape-font-specification:'Roboto weight=255';text-align:center;letter-spacing:0px;word-spacing:0px;text-anchor:middle;fill:#000000;fill-opacity:1;stroke:none;stroke-width:0.59378201px;stroke-linecap:butt;stroke-linejoin:miter;stroke-opacity:1"
       transform="scale(1.0007731,0.99922751)"
       aria-label="Properties">
      <path
         id="path825"
         style="font-style:normal;font-variant:normal;font-weight:100;font-stretch:normal;font-family:Roboto;-inkscape-font-specification:'Roboto Thin';stroke-width:0.59378201px"
         d="m 31.550262,288.0949 v 5.23039 h -0.459254 v -12.38283 h 3.869635 q 1.896546,0 2.942623,0.96103 1.054581,0.95252 1.054581,2.65346 0,1.68393 -1.029067,2.60244 -1.020563,0.9185 -2.908605,0.93551 z m 0,-0.45925 h 3.410381 q 1.675424,0 2.602435,-0.80795 0.935516,-0.80794 0.935516,-2.25374 0,-1.49683 -0.935516,-2.33028 -0.927011,-0.84197 -2.602435,-0.84197 h -3.410381 z" />
      <path
         id="path827"
         style="font-style:normal;font-variant:normal;font-weight:100;font-stretch:normal;font-family:Roboto;-inkscape-font-specification:'Roboto Thin';stroke-width:0.59378201px"
         d="m 45.387393,284.45489 -0.595328,-0.051 q -1.173648,0 -1.964584,0.76542 -0.790936,0.75692 -1.037572,2.12617 v 6.02983 h -0.459254 v -9.20208 h 0.459254 v 1.91356 q 0.374206,-0.96103 1.122619,-1.52234 0.748413,-0.56131 1.879537,-0.56131 0.39972,0 0.646356,0.0935 z" />
      <path
         id="path829"
         style="font-style:normal;font-variant:normal;font-weight:100;font-stretch:normal;font-family:Roboto;-inkscape-font-specification:'Roboto Thin';stroke-width:0.59378201px"
         d="m 46.280386,288.54565 q 0,-1.31823 0.501776,-2.3643 0.510282,-1.05458 1.428788,-1.64141 0.927012,-0.58682 2.092154,-0.58682 1.156638,0 2.075145,0.56981 0.918506,0.56982 1.428788,1.61589 0.518786,1.04608 0.527291,2.3558 v 0.40823 q 0,1.32673 -0.501777,2.37281 -0.501777,1.04607 -1.428788,1.6329 -0.918507,0.58682 -2.083649,0.58682 -1.165143,0 -2.092154,-0.57832 -0.918507,-0.57832 -1.428788,-1.61589 -0.510282,-1.04608 -0.518786,-2.34729 z m 0.459253,0.3572 q 0,1.14813 0.450748,2.10916 0.459254,0.95253 1.267199,1.48832 0.816451,0.5358 1.862528,0.5358 1.573367,0 2.559911,-1.18215 0.995049,-1.18216 0.995049,-3.04468 v -0.26365 q 0,-1.13112 -0.459253,-2.09215 -0.459253,-0.96103 -1.275704,-1.49683 -0.807945,-0.5443 -1.837013,-0.5443 -1.573368,0 -2.568416,1.19916 -0.995049,1.19916 -0.995049,3.01917 z" />
      <path
         id="path831"
         style="font-style:normal;font-variant:normal;font-weight:100;font-stretch:normal;font-family:Roboto;-inkscape-font-specification:'Roboto Thin';stroke-width:0.59378201px"
         d="m 63.604442,288.8093 q 0,2.15168 -0.927012,3.41888 -0.927011,1.2672 -2.525893,1.2672 -1.046077,0 -1.862527,-0.42523 -0.81645,-0.42524 -1.275704,-1.17365 v 4.96674 h -0.459253 v -12.74003 h 0.459253 v 1.64141 q 0.476263,-0.87599 1.284209,-1.34374 0.807945,-0.46776 1.837013,-0.46776 1.615891,0 2.542902,1.24168 0.927012,1.23318 0.927012,3.46992 z m -0.467758,-0.1786 q 0,-1.9816 -0.790937,-3.09571 -0.782431,-1.12262 -2.202714,-1.12262 -1.156638,0 -1.964584,0.60383 -0.807946,0.59533 -1.165143,1.71795 v 4.30338 q 0.357197,0.95252 1.165143,1.47981 0.81645,0.51879 1.981593,0.51879 1.411779,0 2.19421,-1.12262 0.782432,-1.12262 0.782432,-3.28281 z" />
      <path
         id="path833"
         style="font-style:normal;font-variant:normal;font-weight:100;font-stretch:normal;font-family:Roboto;-inkscape-font-specification:'Roboto Thin';stroke-width:0.59378201px"
         d="m 69.40464,293.49538 q -1.114114,0 -2.04963,-0.59533 -0.927011,-0.60383 -1.454302,-1.64991 -0.527291,-1.04607 -0.527291,-2.32178 v -0.38271 q 0,-1.2757 0.510281,-2.33879 0.510282,-1.06309 1.403274,-1.65841 0.892993,-0.59533 1.947575,-0.59533 1.539349,0 2.517388,1.0971 0.978039,1.09711 0.978039,2.88309 v 0.48477 H 65.83267 v 0.50178 q 0,1.12262 0.467758,2.08365 0.476263,0.95252 1.301218,1.49682 0.83346,0.5443 1.802994,0.5443 0.927012,0 1.573368,-0.30617 0.654861,-0.31467 1.156638,-0.96103 l 0.323178,0.22963 q -1.029067,1.48832 -3.053184,1.48832 z m -0.170093,-9.08301 q -1.343742,0 -2.279257,1.00355 -0.935516,0.99505 -1.097106,2.54291 h 6.412537 v -0.11056 q 0,-0.93552 -0.39972,-1.73496 -0.391216,-0.80795 -1.088601,-1.25019 -0.68888,-0.45075 -1.547853,-0.45075 z" />
      <path
         id="path835"
         style="font-style:normal;font-variant:normal;font-weight:100;font-stretch:normal;font-family:Roboto;-inkscape-font-specification:'Roboto Thin';stroke-width:0.59378201px"
         d="m 78.929893,284.45489 -0.595328,-0.051 q -1.173647,0 -1.964583,0.76542 -0.790937,0.75692 -1.037573,2.12617 v 6.02983 h -0.459253 v -9.20208 h 0.459253 v 1.91356 q 0.374207,-0.96103 1.122619,-1.52234 0.748413,-0.56131 1.879537,-0.56131 0.39972,0 0.646357,0.0935 z" />
      <path
         id="path837"
         style="font-style:normal;font-variant:normal;font-weight:100;font-stretch:normal;font-family:Roboto;-inkscape-font-specification:'Roboto Thin';stroke-width:0.59378201px"
         d="m 82.161676,281.63984 v 2.48337 h 2.092154 v 0.46776 h -2.092154 v 6.5316 q 0,0.97804 0.314674,1.4458 0.323178,0.46776 1.071591,0.46776 0.374206,0 0.910002,-0.0765 l 0.07654,0.43373 q -0.280655,0.10206 -0.96103,0.10206 -1.003554,0 -1.437293,-0.5528 -0.433739,-0.56131 -0.442244,-1.76048 v -6.59113 H 79.99298 v -0.46776 h 1.700938 v -2.48337 z" />
      <path
         id="path839"
         style="font-style:normal;font-variant:normal;font-weight:100;font-stretch:normal;font-family:Roboto;-inkscape-font-specification:'Roboto Thin';stroke-width:0.59378201px"
         d="m 87.213463,293.32529 h -0.459254 v -9.20208 h 0.459254 z m -0.697385,-12.07666 q 0,-0.19561 0.136075,-0.33169 0.136075,-0.14458 0.331683,-0.14458 0.195608,0 0.331683,0.14458 0.14458,0.13608 0.14458,0.33169 0,0.1956 -0.14458,0.33168 -0.136075,0.13607 -0.331683,0.13607 -0.195608,0 -0.331683,-0.13607 -0.136075,-0.13608 -0.136075,-0.33168 z" />
      <path
         id="path841"
         style="font-style:normal;font-variant:normal;font-weight:100;font-stretch:normal;font-family:Roboto;-inkscape-font-specification:'Roboto Thin';stroke-width:0.59378201px"
         d="m 93.557961,293.49538 q -1.114115,0 -2.049631,-0.59533 -0.927011,-0.60383 -1.454302,-1.64991 -0.527291,-1.04607 -0.527291,-2.32178 v -0.38271 q 0,-1.2757 0.510282,-2.33879 0.510281,-1.06309 1.403274,-1.65841 0.892992,-0.59533 1.947574,-0.59533 1.539349,0 2.517388,1.0971 0.97804,1.09711 0.97804,2.88309 v 0.48477 h -6.897304 v 0.50178 q 0,1.12262 0.467758,2.08365 0.476262,0.95252 1.301217,1.49682 0.83346,0.5443 1.802995,0.5443 0.927011,0 1.573367,-0.30617 0.654862,-0.31467 1.156638,-0.96103 l 0.323179,0.22963 q -1.029068,1.48832 -3.053184,1.48832 z m -0.170094,-9.08301 q -1.343741,0 -2.279257,1.00355 -0.935516,0.99505 -1.097105,2.54291 h 6.412536 v -0.11056 q 0,-0.93552 -0.39972,-1.73496 -0.391216,-0.80795 -1.0886,-1.25019 -0.68888,-0.45075 -1.547854,-0.45075 z" />
      <path
         id="path843"
         style="font-style:normal;font-variant:normal;font-weight:100;font-stretch:normal;font-family:Roboto;-inkscape-font-specification:'Roboto Thin';stroke-width:0.59378201px"
         d="m 104.6991,291.07154 q 0,-1.67542 -2.85757,-2.27925 -1.71795,-0.3657 -2.389819,-0.93552 -0.671871,-0.57832 -0.671871,-1.58187 0,-1.01206 0.850469,-1.66692 0.858971,-0.65486 2.228231,-0.65486 1.48832,0 2.38982,0.71439 0.90149,0.70589 0.90149,1.91356 h -0.46775 q 0,-0.92701 -0.78244,-1.54786 -0.78243,-0.62084 -2.04112,-0.62084 -1.20767,0 -1.913557,0.52729 -0.705889,0.52729 -0.705889,1.31823 0,0.62084 0.263645,0.97804 0.263645,0.34869 0.858971,0.63785 0.59533,0.28065 1.73496,0.5443 1.13963,0.26365 1.80299,0.62084 0.66337,0.3572 0.96103,0.85047 0.29767,0.48477 0.29767,1.19066 0,1.0886 -0.89299,1.75196 -0.893,0.66337 -2.33879,0.66337 -1.54786,0 -2.500383,-0.69738 -0.944021,-0.70589 -0.944021,-1.8115 h 0.459253 q 0.06804,0.96953 0.850469,1.51383 0.790932,0.5358 2.134682,0.5358 1.23318,0 1.9986,-0.56982 0.77392,-0.57832 0.77392,-1.39477 z" />
    </g>
  </g>
</svg>
